<mxfile host="app.diagrams.net" agent="Mozilla/5.0 (X11; Linux x86_64) AppleWebKit/537.36 (KHTML, like Gecko) Chrome/128.0.0.0 Safari/537.36" version="24.7.13">
  <diagram name="Page-1" id="WYKj8tJI4UiElz0lOC7b">
    <mxGraphModel dx="954" dy="618" grid="1" gridSize="10" guides="1" tooltips="1" connect="1" arrows="1" fold="1" page="1" pageScale="1" pageWidth="850" pageHeight="1100" math="0" shadow="0">
      <root>
        <mxCell id="0" />
        <mxCell id="1" parent="0" />
        <mxCell id="Mxi5VCFcGpsO84QO2-ki-24" style="edgeStyle=none;shape=connector;rounded=0;orthogonalLoop=1;jettySize=auto;html=1;exitX=0.5;exitY=1;exitDx=0;exitDy=0;entryX=0.5;entryY=0;entryDx=0;entryDy=0;strokeColor=default;align=center;verticalAlign=middle;fontFamily=Helvetica;fontSize=11;fontColor=default;labelBackgroundColor=default;endArrow=classic;" edge="1" parent="1" source="Mxi5VCFcGpsO84QO2-ki-1" target="Mxi5VCFcGpsO84QO2-ki-3">
          <mxGeometry relative="1" as="geometry" />
        </mxCell>
        <mxCell id="Mxi5VCFcGpsO84QO2-ki-1" value="START" style="ellipse;whiteSpace=wrap;html=1;" vertex="1" parent="1">
          <mxGeometry x="370" y="20" width="80" height="50" as="geometry" />
        </mxCell>
        <mxCell id="Mxi5VCFcGpsO84QO2-ki-5" style="rounded=0;orthogonalLoop=1;jettySize=auto;html=1;exitX=0;exitY=1;exitDx=0;exitDy=0;" edge="1" parent="1" source="Mxi5VCFcGpsO84QO2-ki-3" target="Mxi5VCFcGpsO84QO2-ki-4">
          <mxGeometry relative="1" as="geometry" />
        </mxCell>
        <mxCell id="Mxi5VCFcGpsO84QO2-ki-3" value="User Auth API" style="ellipse;whiteSpace=wrap;html=1;aspect=fixed;" vertex="1" parent="1">
          <mxGeometry x="370" y="130" width="80" height="80" as="geometry" />
        </mxCell>
        <mxCell id="Mxi5VCFcGpsO84QO2-ki-17" style="edgeStyle=none;shape=connector;rounded=0;orthogonalLoop=1;jettySize=auto;html=1;exitX=0;exitY=0.5;exitDx=0;exitDy=0;entryX=1;entryY=0.5;entryDx=0;entryDy=0;strokeColor=default;align=center;verticalAlign=middle;fontFamily=Helvetica;fontSize=11;fontColor=default;labelBackgroundColor=default;endArrow=classic;" edge="1" parent="1" source="Mxi5VCFcGpsO84QO2-ki-4" target="Mxi5VCFcGpsO84QO2-ki-16">
          <mxGeometry relative="1" as="geometry" />
        </mxCell>
        <mxCell id="Mxi5VCFcGpsO84QO2-ki-19" style="edgeStyle=none;shape=connector;rounded=0;orthogonalLoop=1;jettySize=auto;html=1;exitX=0;exitY=1;exitDx=0;exitDy=0;entryX=1;entryY=0;entryDx=0;entryDy=0;strokeColor=default;align=center;verticalAlign=middle;fontFamily=Helvetica;fontSize=11;fontColor=default;labelBackgroundColor=default;endArrow=classic;" edge="1" parent="1" source="Mxi5VCFcGpsO84QO2-ki-4" target="Mxi5VCFcGpsO84QO2-ki-18">
          <mxGeometry relative="1" as="geometry" />
        </mxCell>
        <mxCell id="Mxi5VCFcGpsO84QO2-ki-4" value="User Info API" style="ellipse;whiteSpace=wrap;html=1;aspect=fixed;fillColor=#33FF99;" vertex="1" parent="1">
          <mxGeometry x="200" y="260" width="80" height="80" as="geometry" />
        </mxCell>
        <mxCell id="Mxi5VCFcGpsO84QO2-ki-12" style="edgeStyle=none;shape=connector;rounded=0;orthogonalLoop=1;jettySize=auto;html=1;exitX=1;exitY=0;exitDx=0;exitDy=0;entryX=0;entryY=0.5;entryDx=0;entryDy=0;strokeColor=default;align=center;verticalAlign=middle;fontFamily=Helvetica;fontSize=11;fontColor=default;labelBackgroundColor=default;endArrow=classic;" edge="1" parent="1" source="Mxi5VCFcGpsO84QO2-ki-6" target="Mxi5VCFcGpsO84QO2-ki-7">
          <mxGeometry relative="1" as="geometry" />
        </mxCell>
        <mxCell id="Mxi5VCFcGpsO84QO2-ki-23" style="edgeStyle=none;shape=connector;rounded=0;orthogonalLoop=1;jettySize=auto;html=1;exitX=0;exitY=1;exitDx=0;exitDy=0;entryX=1;entryY=0;entryDx=0;entryDy=0;strokeColor=default;align=center;verticalAlign=middle;fontFamily=Helvetica;fontSize=11;fontColor=default;labelBackgroundColor=default;endArrow=classic;" edge="1" parent="1" source="Mxi5VCFcGpsO84QO2-ki-6" target="Mxi5VCFcGpsO84QO2-ki-22">
          <mxGeometry relative="1" as="geometry" />
        </mxCell>
        <mxCell id="Mxi5VCFcGpsO84QO2-ki-6" value="Subscription" style="ellipse;whiteSpace=wrap;html=1;aspect=fixed;" vertex="1" parent="1">
          <mxGeometry x="360" y="340" width="80" height="80" as="geometry" />
        </mxCell>
        <mxCell id="Mxi5VCFcGpsO84QO2-ki-13" style="edgeStyle=none;shape=connector;rounded=0;orthogonalLoop=1;jettySize=auto;html=1;exitX=1;exitY=1;exitDx=0;exitDy=0;entryX=0;entryY=0;entryDx=0;entryDy=0;strokeColor=default;align=center;verticalAlign=middle;fontFamily=Helvetica;fontSize=11;fontColor=default;labelBackgroundColor=default;endArrow=classic;" edge="1" parent="1" source="Mxi5VCFcGpsO84QO2-ki-7" target="Mxi5VCFcGpsO84QO2-ki-10">
          <mxGeometry relative="1" as="geometry" />
        </mxCell>
        <mxCell id="Mxi5VCFcGpsO84QO2-ki-7" value="Payments API" style="ellipse;whiteSpace=wrap;html=1;aspect=fixed;" vertex="1" parent="1">
          <mxGeometry x="510" y="260" width="80" height="80" as="geometry" />
        </mxCell>
        <mxCell id="Mxi5VCFcGpsO84QO2-ki-15" style="edgeStyle=none;shape=connector;rounded=0;orthogonalLoop=1;jettySize=auto;html=1;exitX=0;exitY=0.5;exitDx=0;exitDy=0;entryX=1;entryY=0.5;entryDx=0;entryDy=0;strokeColor=default;align=center;verticalAlign=middle;fontFamily=Helvetica;fontSize=11;fontColor=default;labelBackgroundColor=default;endArrow=classic;" edge="1" parent="1" source="Mxi5VCFcGpsO84QO2-ki-8" target="Mxi5VCFcGpsO84QO2-ki-9">
          <mxGeometry relative="1" as="geometry" />
        </mxCell>
        <mxCell id="Mxi5VCFcGpsO84QO2-ki-8" value="models API" style="ellipse;whiteSpace=wrap;html=1;aspect=fixed;" vertex="1" parent="1">
          <mxGeometry x="700" y="460" width="80" height="80" as="geometry" />
        </mxCell>
        <mxCell id="Mxi5VCFcGpsO84QO2-ki-9" value="SMS Module" style="ellipse;whiteSpace=wrap;html=1;aspect=fixed;" vertex="1" parent="1">
          <mxGeometry x="400" y="510" width="80" height="80" as="geometry" />
        </mxCell>
        <mxCell id="Mxi5VCFcGpsO84QO2-ki-14" style="edgeStyle=none;shape=connector;rounded=0;orthogonalLoop=1;jettySize=auto;html=1;exitX=1;exitY=1;exitDx=0;exitDy=0;entryX=0;entryY=0;entryDx=0;entryDy=0;strokeColor=default;align=center;verticalAlign=middle;fontFamily=Helvetica;fontSize=11;fontColor=default;labelBackgroundColor=default;endArrow=classic;" edge="1" parent="1" source="Mxi5VCFcGpsO84QO2-ki-10" target="Mxi5VCFcGpsO84QO2-ki-8">
          <mxGeometry relative="1" as="geometry" />
        </mxCell>
        <mxCell id="Mxi5VCFcGpsO84QO2-ki-10" value="Dashboard API (Tier Information)&amp;nbsp;" style="ellipse;whiteSpace=wrap;html=1;aspect=fixed;" vertex="1" parent="1">
          <mxGeometry x="600" y="370" width="80" height="80" as="geometry" />
        </mxCell>
        <mxCell id="Mxi5VCFcGpsO84QO2-ki-11" style="edgeStyle=none;shape=connector;rounded=0;orthogonalLoop=1;jettySize=auto;html=1;exitX=1;exitY=1;exitDx=0;exitDy=0;entryX=0.075;entryY=0.4;entryDx=0;entryDy=0;entryPerimeter=0;strokeColor=default;align=center;verticalAlign=middle;fontFamily=Helvetica;fontSize=11;fontColor=default;labelBackgroundColor=default;endArrow=classic;" edge="1" parent="1" source="Mxi5VCFcGpsO84QO2-ki-4" target="Mxi5VCFcGpsO84QO2-ki-6">
          <mxGeometry relative="1" as="geometry" />
        </mxCell>
        <mxCell id="Mxi5VCFcGpsO84QO2-ki-16" value="register" style="ellipse;whiteSpace=wrap;html=1;aspect=fixed;fillColor=#00FF00;" vertex="1" parent="1">
          <mxGeometry x="100" y="280" width="40" height="40" as="geometry" />
        </mxCell>
        <mxCell id="Mxi5VCFcGpsO84QO2-ki-18" value="Login" style="ellipse;whiteSpace=wrap;html=1;aspect=fixed;fillColor=#CC0066;" vertex="1" parent="1">
          <mxGeometry x="120" y="340" width="40" height="40" as="geometry" />
        </mxCell>
        <mxCell id="Mxi5VCFcGpsO84QO2-ki-20" value="status" style="ellipse;whiteSpace=wrap;html=1;aspect=fixed;" vertex="1" parent="1">
          <mxGeometry x="240" y="400" width="40" height="40" as="geometry" />
        </mxCell>
        <mxCell id="Mxi5VCFcGpsO84QO2-ki-21" style="edgeStyle=none;shape=connector;rounded=0;orthogonalLoop=1;jettySize=auto;html=1;exitX=0;exitY=0.5;exitDx=0;exitDy=0;entryX=1.05;entryY=0.325;entryDx=0;entryDy=0;entryPerimeter=0;strokeColor=default;align=center;verticalAlign=middle;fontFamily=Helvetica;fontSize=11;fontColor=default;labelBackgroundColor=default;endArrow=classic;" edge="1" parent="1" source="Mxi5VCFcGpsO84QO2-ki-6" target="Mxi5VCFcGpsO84QO2-ki-20">
          <mxGeometry relative="1" as="geometry" />
        </mxCell>
        <mxCell id="Mxi5VCFcGpsO84QO2-ki-22" value="subscribe" style="ellipse;whiteSpace=wrap;html=1;aspect=fixed;" vertex="1" parent="1">
          <mxGeometry x="270" y="440" width="50" height="50" as="geometry" />
        </mxCell>
      </root>
    </mxGraphModel>
  </diagram>
</mxfile>
